<svg xmlns="http://www.w3.org/2000/svg" width="463.909" height="481.002" viewBox="0 0 463.909 481.002">
  <g id="Group_1" data-name="Group 1" transform="translate(-132.189 -152.147)">
    <path id="Path_1" data-name="Path 1" d="M434.789,551.19a11.259,11.259,0,0,1-3.272-2.32,10.048,10.048,0,0,1-2.114-3.232,9.774,9.774,0,0,1-.744-3.728,20.759,20.759,0,0,1,.995-5.76q.992-3.358,2.154-6.422,1.407-3.561,3.232-7.374c-.442-.276-.9-.582-1.368-.914a16.483,16.483,0,0,1-1.45-1.16q-.666,1.33-1.45,2.86-.677,1.324-2,3.595-.5.9-1.022,1.834-2.234,3.978-4.848,8.162a81.91,81.91,0,0,1-5.3,7.582,40.312,40.312,0,0,1-5.253,5.593,7.558,7.558,0,0,1-4.716,2.2,7.278,7.278,0,0,1-4.176-1.2,15.657,15.657,0,0,1-3.02-2.61,14.72,14.72,0,0,1-2.48-3.893q-.992,1.157-2.311,2.484a27.343,27.343,0,0,1-2.849,2.486,17.359,17.359,0,0,1-3.217,1.948,7.874,7.874,0,0,1-3.343.787,10.9,10.9,0,0,1-5.675-1.45,13.183,13.183,0,0,1-4.1-3.812,18.178,18.178,0,0,1-2.526-5.262,20.085,20.085,0,0,1-.872-5.8,24.858,24.858,0,0,1,1.2-7.416,38.848,38.848,0,0,1,3.314-7.582,43.9,43.9,0,0,1,5.014-7.086,40.173,40.173,0,0,1,6.256-5.882,31.245,31.245,0,0,1,7-4.02,19.112,19.112,0,0,1,7.293-1.49,14.532,14.532,0,0,1,5.343.868,10.87,10.87,0,0,1,3.606,2.237,9.908,9.908,0,0,1,2.154,3.024,14.235,14.235,0,0,1,1.034,3.192,11.082,11.082,0,0,1,.208,2.777,5.058,5.058,0,0,1-.329,1.74h.082a.935.935,0,0,1-1.036.62,5.22,5.22,0,0,1-1.576-.332,5.648,5.648,0,0,1-1.408-.744q-.621-.456-.538-.7a2.529,2.529,0,0,0,.042-.912,3.509,3.509,0,0,0-.5-1.535,4.1,4.1,0,0,0-1.492-1.408,5.761,5.761,0,0,0-2.942-.622,7.194,7.194,0,0,0-4.268,1.74,26.849,26.849,0,0,0-4.514,4.516,52.3,52.3,0,0,0-4.31,6.3,61.023,61.023,0,0,0-3.6,7.123,58.712,58.712,0,0,0-2.488,6.962,21.664,21.664,0,0,0-.952,5.758q0,2.985,1.74,2.983a6.622,6.622,0,0,0,4.226-1.822,25.884,25.884,0,0,0,4.186-4.642,47.941,47.941,0,0,0,3.77-6.214q1.74-3.4,3.065-6.465t2.073-5.386a13.176,13.176,0,0,0,.745-3.066.876.876,0,0,1,.82-.912,4.613,4.613,0,0,1,2.058.166,21.443,21.443,0,0,1,2.714.952,18.076,18.076,0,0,1,2.714,1.408,10.873,10.873,0,0,1,2.058,1.661,2.428,2.428,0,0,1,.822,1.532,9.073,9.073,0,0,1-.869,2.983q-.868,2.072-2.024,4.723-.832,1.825-1.7,3.812t-1.57,3.894q-.7,1.908-1.158,3.564a10.74,10.74,0,0,0-.456,2.736c0,.275-.026.414-.082.414q1.158,0,2.936-1.948a45.316,45.316,0,0,0,3.848-4.972q2.067-3.024,4.182-6.67t3.978-7.087q1.863-3.437,3.273-6.215,1.045-2.064,1.682-3.327a10.49,10.49,0,0,1-.566-2.142,17.143,17.143,0,0,1-.206-2.692,22.167,22.167,0,0,1,.662-5.388,22.613,22.613,0,0,1,1.74-4.762,12.767,12.767,0,0,1,2.4-3.4,3.94,3.94,0,0,1,2.734-1.283,18.7,18.7,0,0,1,2.982.288,15.631,15.631,0,0,1,3.274.912,8.152,8.152,0,0,1,2.61,1.656,3.379,3.379,0,0,1,1.078,2.528,6.079,6.079,0,0,1-.746,2.778q-.747,1.449-1.656,3.188a36.557,36.557,0,0,0-2.114,4.02,9.776,9.776,0,0,0-.952,4.02,7.173,7.173,0,0,0,.373,2.444,5.309,5.309,0,0,0,.994,1.74,6.9,6.9,0,0,0,1.368,1.2c.5.332.964.638,1.409.912a12.475,12.475,0,0,1,2.319,1.534,2.949,2.949,0,0,1,.913,2.362,8.43,8.43,0,0,1-.83,2.94q-.829,1.949-1.988,4.352c-.5,1.106-1.024,2.278-1.574,3.523s-1.052,2.443-1.492,3.6-.816,2.266-1.118,3.316a9.84,9.84,0,0,0-.456,2.651c0,.61.138.912.414.912q1.245,0,3.066-1.906a40.743,40.743,0,0,0,3.893-4.888q2.074-2.982,4.187-6.629t4.019-7.126q1.9-3.48,3.354-6.422t2.114-4.515v-.085a1.253,1.253,0,0,1,1.242-.661,5.079,5.079,0,0,1,1.866.372,4.515,4.515,0,0,1,1.574,1,1.032,1.032,0,0,1,.288,1.282q-.744,1.662-2.36,4.932t-3.812,7.208q-2.2,3.939-4.764,8.08a80.679,80.679,0,0,1-5.262,7.542,33.516,33.516,0,0,1-5.428,5.549A8.493,8.493,0,0,1,439.1,552.1,9.878,9.878,0,0,1,434.789,551.19Z" fill="#1a1a1a"/>
    <path id="Path_2" data-name="Path 2" d="M506.178,549.077a12.07,12.07,0,0,1-2.61-8.162,17.189,17.189,0,0,1,.828-4.64q.082-.279.169-.563-.592.57-1.2,1.141A65.129,65.129,0,0,1,493.5,544.4a56.163,56.163,0,0,1-11.768,5.549,41.682,41.682,0,0,1-13.464,2.155,21.6,21.6,0,0,1-7.064-1.034,11.143,11.143,0,0,1-4.785-3.109,13.574,13.574,0,0,1-2.736-5.013,22.968,22.968,0,0,1-.911-6.755,17.83,17.83,0,0,1,1.119-5.094c.749-2.242,1.724-4.821,2.9-7.666,1.2-2.9,2.563-6.022,4.06-9.28,1.652-3.6,3.155-6.857,4.6-9.946q2.07-4.392,4.02-8.534c1.3-2.775,2.459-5.34,3.438-7.624,1-2.325,1.8-4.36,2.4-6.048a12.814,12.814,0,0,0,.914-3.73,3.022,3.022,0,0,1,.913-2.525,3.674,3.674,0,0,1,2.318-.707,6.362,6.362,0,0,1,2.652.707,12.172,12.172,0,0,1,4.972,4.35,5.281,5.281,0,0,1,.91,2.9,13.828,13.828,0,0,1-.786,3.728c-.531,1.674-1.186,3.528-1.948,5.512-.794,2.067-1.644,4.172-2.528,6.256s-1.749,4.1-2.569,5.966c-.8,1.823-1.5,3.37-2.072,4.6-.554,1.191-.922,1.941-1.034,2.114,1.183-1.023,2.479-2.083,3.852-3.15a37.668,37.668,0,0,1,4.186-2.819,28.393,28.393,0,0,1,4.269-2.028,11.773,11.773,0,0,1,4.1-.788,8.323,8.323,0,0,1,5.1,1.408,9.18,9.18,0,0,1,2.815,3.44,13.619,13.619,0,0,1,1.2,4.308,38.459,38.459,0,0,1,.248,4.1,28.09,28.09,0,0,1-2.361,11.188,41.385,41.385,0,0,1-6.92,10.688,66.464,66.464,0,0,0,7.915-6.585,91.187,91.187,0,0,0,6.3-6.755c1.3-1.558,2.432-3.019,3.385-4.363q.747-1.623,1.465-3.179,1.989-4.224,3.4-7.374A14.085,14.085,0,0,0,517.4,505.2q0-1.323,1.66-1.2a9.3,9.3,0,0,1,3.646,1.2,14.8,14.8,0,0,1,3.646,2.821,5.182,5.182,0,0,1,1.656,3.561,5.8,5.8,0,0,1-.414,1.659c-.278.774-.634,1.671-1.078,2.694s-.94,2.126-1.49,3.314-1.106,2.362-1.658,3.522q-1.327,2.818-2.86,6.048t-2.816,6.214q-1.287,2.988-2.114,5.512a13.694,13.694,0,0,0-.828,3.937c0,.5.082.746.248.746a6.665,6.665,0,0,0,4.1-1.947,38.844,38.844,0,0,0,4.724-4.932,79.435,79.435,0,0,0,4.848-6.629q2.4-3.645,4.432-7.084t3.524-6.214q1.49-2.778,2.154-4.1v-.082a1.3,1.3,0,0,1,1.242-.58,5.14,5.14,0,0,1,1.867.373,4.238,4.238,0,0,1,1.574,1.034,1.232,1.232,0,0,1,.372,1.326q-.828,1.828-2.61,5.18t-4.184,7.292q-2.406,3.937-5.306,8.08a70.639,70.639,0,0,1-6.006,7.5,34.85,34.85,0,0,1-6.382,5.508,11.65,11.65,0,0,1-6.422,2.156A8.505,8.505,0,0,1,506.178,549.077ZM485,512.117a36.5,36.5,0,0,0-5.1,3.814,65.273,65.273,0,0,0-5.387,5.342,69.386,69.386,0,0,0-4.888,6.052,38.534,38.534,0,0,0-3.566,5.964,12.3,12.3,0,0,0-1.366,5.056,14,14,0,0,0,.208,2.362,7.932,7.932,0,0,0,.7,2.2,5.17,5.17,0,0,0,1.283,1.656,2.923,2.923,0,0,0,1.949.664,7.484,7.484,0,0,0,4.307-1.7,27.533,27.533,0,0,0,4.642-4.432,50.694,50.694,0,0,0,4.474-6.256,59.736,59.736,0,0,0,3.77-7.21,54.725,54.725,0,0,0,2.61-7.252,24.119,24.119,0,0,0,.995-6.379c0-.879-.223-1.325-.662-1.325A8.322,8.322,0,0,0,485,512.117Zm37.746-14.75a5.269,5.269,0,0,1-.7-2.857,13.27,13.27,0,0,1,.581-3.6,20.464,20.464,0,0,1,1.532-3.854,13.114,13.114,0,0,1,2.156-3.066,3.447,3.447,0,0,1,2.443-1.242,10.081,10.081,0,0,1,3.026.454,8.186,8.186,0,0,1,2.569,1.327,6.466,6.466,0,0,1,1.782,2.155,6.3,6.3,0,0,1-.208,6.008,9.854,9.854,0,0,1-2.444,2.858,13.574,13.574,0,0,1-8.536,2.942A2.41,2.41,0,0,1,522.751,497.367Z" fill="#1a1a1a"/>
    <path id="Path_3" data-name="Path 3" d="M545.746,552.1a13.973,13.973,0,0,1-7.128-1.74,16.685,16.685,0,0,1-4.972-4.39,18.758,18.758,0,0,1-2.942-5.8,21.017,21.017,0,0,1-.951-6.048,25.708,25.708,0,0,1,2.818-11.479,37.194,37.194,0,0,1,7.416-10.15,39.329,39.329,0,0,1,10.358-7.25,26.882,26.882,0,0,1,11.726-2.776c2.583,0,4.465.585,5.594,1.74a6.392,6.392,0,0,1,1.7,4.64,13.518,13.518,0,0,1-1.118,4.932,35.2,35.2,0,0,1-3.027,5.757,52.837,52.837,0,0,1-4.389,5.884,50.535,50.535,0,0,1-5.264,5.3,38.176,38.176,0,0,1-5.676,4.1,19.232,19.232,0,0,1-5.55,2.28,15.118,15.118,0,0,0-.332,3.148,6.444,6.444,0,0,0,.662,3.109,2.352,2.352,0,0,0,2.238,1.2,15.483,15.483,0,0,0,7.208-1.862,33.346,33.346,0,0,0,6.8-4.766A56.073,56.073,0,0,0,567,531.508c1.889-2.327,3.6-4.641,5.1-6.876,1.521-2.287,2.753-4.267,3.767-6.052s1.751-3.125,2.2-4.018a1.3,1.3,0,0,1,1.286-.664,4.909,4.909,0,0,1,1.864.374,4.38,4.38,0,0,1,1.535,1.036,1.234,1.234,0,0,1,.37,1.326c-.553,1.109-1.4,2.768-2.526,4.93s-2.551,4.6-4.226,7.21-3.612,5.328-5.76,8.08a54.536,54.536,0,0,1-7.126,7.54,37.546,37.546,0,0,1-8.37,5.552A21.4,21.4,0,0,1,545.746,552.1Zm17.4-43.752a7.122,7.122,0,0,0-4.35,1.948,27.979,27.979,0,0,0-4.64,5.054,54.041,54.041,0,0,0-4.307,7,67.38,67.38,0,0,0-3.441,7.707,26.877,26.877,0,0,0,6.048-4.31,51.186,51.186,0,0,0,5.554-5.964,38.161,38.161,0,0,0,4.018-6.134,11.411,11.411,0,0,0,1.534-4.806C563.561,508.516,563.421,508.349,563.145,508.349Z" fill="#1a1a1a"/>
    <path id="Path_4" data-name="Path 4" d="M208.344,560.364a144.691,144.691,0,0,1-28.391-2.708,96.007,96.007,0,0,1-24.346-8.073c-15.32-7.743-23.418-18.784-23.418-31.929,0-6.406,3.164-13.9,9.4-22.264,5.922-7.942,14.48-16.508,25.435-25.46,21.44-17.52,50.675-35.355,82.32-50.22a309.159,309.159,0,0,1,33.9-15.159,362.187,362.187,0,0,1,36.326-11.841,294.434,294.434,0,0,1,43.862-8.362c-1.652-1.442-3.527-2.911-5.574-4.364-7.444-4.581-16.688-6.9-27.477-6.9a88.68,88.68,0,0,0-18.3,2.036,73.7,73.7,0,0,0-7.645,2.036l.01-.02a301.459,301.459,0,0,1-39.059,12.643c-6.123,1.491-11.938,2.637-17.283,3.408a105.049,105.049,0,0,1-14.788,1.183c-5.117,0-9.384-1.08-12.342-3.124a8.908,8.908,0,0,1-4.182-7.358c0-6.048,8.453-12.788,22.612-18.028a137.8,137.8,0,0,1,25.15-6.446,194.1,194.1,0,0,1,31.611-2.518,119.133,119.133,0,0,1,12.793.762c.571-.442,1.145-.881,1.7-1.306,1.512-1.156,3.075-2.351,4.628-3.649a246.9,246.9,0,0,0,41.988-46.342A197.672,197.672,0,0,0,380.049,250.9a156.7,156.7,0,0,0,4.415-26.842c-.24-26.989-9.793-59.162-53.945-59.162a111.917,111.917,0,0,0-15,1.082c-35.588,6.689-68.21,31.165-74.388,36-24.937,20.4-44.645,43.043-56.993,65.487-13.913,25.287-18.217,49.316-12.792,71.419,3.863,15.747,13.764,18.1,19.323,18.1a22.317,22.317,0,0,0,5.307-.662c16.512-4.052,32.06-17.908,46.211-41.184,9.159-15.064,17.517-33.676,24.841-55.318.152-.421.287-.81.417-1.187.644-1.862,1.07-3.09,1.99-3.318a2.283,2.283,0,0,1,.539-.067,1.787,1.787,0,0,1,1.761,1.461c.457,1.865-.133,4.456-1.426,10.132a221.307,221.307,0,0,1-8.314,24.448,226.087,226.087,0,0,1-14.071,29.092c-6.106,10.5-12.545,19.18-19.138,25.785-7.682,7.7-15.593,12.585-23.514,14.529a50.116,50.116,0,0,1-11.932,1.413,50.746,50.746,0,0,1-13.317-1.752,43.715,43.715,0,0,1-12.45-5.517,37.939,37.939,0,0,1-10.151-9.671A40.958,40.958,0,0,1,151,330.958c-.558-2.272-.912-4.524-1.157-6.232-2.265-15.7,1.153-32.605,10.157-50.248.969-1.9,2-3.8,3.068-5.666,8.175-14.259,19.816-28.73,34.6-43.013a334.138,334.138,0,0,1,48.119-38.138l.021-.052.208-.092c6.183-4.073,12.888-8.194,19.928-12.248,2-1,7.5-3.657,15.453-6.842a264.644,264.644,0,0,1,30.031-10c4.462-1.191,9.116-2.278,13.834-3.234a174.964,174.964,0,0,1,31.857-3.045c18.945,0,35.851,3.488,50.249,10.367a87.6,87.6,0,0,1,23.2,16.066,90.945,90.945,0,0,1,10.136,11.66,103.312,103.312,0,0,1,8.786,14.424,45,45,0,0,0-3.56-5.65c-8.468-11.692-22.178-18.829-32.187-22.758a110.841,110.841,0,0,0-19.892-5.782l-.013,0a79.648,79.648,0,0,1,20.092,44.759c.01.1.02.2.031.3.145,1.424.252,2.824.319,4.162l.013-.029a.234.234,0,0,1,0,.036c0,.016,0,.037.006.064.081,1.385.134,2.8.157,4.2a103.869,103.869,0,0,1-2.821,22.644,9.253,9.253,0,0,0-.247,1.078,148.269,148.269,0,0,1-6.184,19.69c-1.714,4.39-3.66,8.812-5.786,13.144l-.075.15-.01.019c-.031.061-.061.121-.094.189-.064.143-.124.288-.177.416-.06.147-.123.3-.193.452a163.506,163.506,0,0,1-20.219,31.268.11.11,0,0,1-.02.026l-.012.013A194,194,0,0,1,358.8,334.083a230.6,230.6,0,0,1-21.659,17.5l-12.906,8.68-.326.22a142.023,142.023,0,0,1,26.94,8.5,117.15,117.15,0,0,1,23.958,14.392c4.595-.283,9.181-.427,13.63-.427a191.25,191.25,0,0,1,26.97,1.856,159.242,159.242,0,0,1,26.676,6.135h0c.008,0,.126.039.362.118l.32.106.136.045c.178.058.355.117.534.178,8.214,2.727,27.488,9.107,29.066,9.442l.048.012.032.008a68.006,68.006,0,0,0,14.471,1.843c11.813,0,18.773-5.14,21.277-15.713a28.141,28.141,0,0,1-4.048,9.99,21.4,21.4,0,0,1-6.444,6.225c-4.357,2.718-9.943,4.1-16.6,4.1a69.4,69.4,0,0,1-19.466-3.162c-1.312-.459-2.785-.961-4.379-1.492-4.564-1.517-11.682-3.774-19.672-5.911a187.349,187.349,0,0,0-44.851-4.979c-2.893,0-5.871.052-8.852.155h-.09a65.9,65.9,0,0,1,11.458,18.2,54.249,54.249,0,0,1-.871,44.49,99.953,99.953,0,0,1-14.376,22.652,170.809,170.809,0,0,1-21.628,21.641,248.357,248.357,0,0,1-26.973,19.729,299.284,299.284,0,0,1-62.351,30.113,235.689,235.689,0,0,1-31.563,8.58A154.891,154.891,0,0,1,208.344,560.364Zm162.488-167.7h0a363.105,363.105,0,0,0-53.176,8.572c-13.546,3.2-22.32,6.057-23.276,6.372-36.775,12.515-73.229,31.334-100.014,51.633-14.081,10.671-25.124,21.4-32.824,31.889-8.249,11.237-12.431,21.922-12.431,31.759,0,9.975,4.356,17.518,12.946,22.418,8.835,5.04,19.668,5.792,25.339,5.792,40.242,0,88.1-17.925,128.018-47.95,18.39-13.832,33.876-29.346,44.785-44.865,11.359-16.159,17.362-31.856,17.362-45.393a35.278,35.278,0,0,0-6.728-20.226Zm-83.526-31.347a125.4,125.4,0,0,0-43.962,8.062,67.55,67.55,0,0,0-13.769,6.9c-3.3,2.282-5.119,4.412-5.119,6,0,2.711,2.636,4.028,8.058,4.028,15,0,38.116-6.786,61.832-18.154,4.059-1.947,7.69-3.784,11.1-5.619-.454-.064-.948-.108-1.426-.15-.354-.031-.756-.067-1.129-.112A135.009,135.009,0,0,0,287.305,361.319Z" fill="#fb7597"/>
    <path id="Path_5" data-name="Path 5" d="M534.32,630.123a11.822,11.822,0,0,1-2.692-8.162,16,16,0,0,1,.746-4.31q.744-2.565,1.946-5.634t2.695-6.3q1.49-3.231,2.982-6.38-2.734,3.151-5.758,6.755t-5.718,7.126q-2.691,3.525-4.848,6.711a41.193,41.193,0,0,0-3.232,5.513c-.054.276-.1.524-.124.743a4.708,4.708,0,0,0-.04.581l.164.664a3.174,3.174,0,0,1,.124.58,3,3,0,0,0,.126.581l-.084-.085.455,1.824a2.584,2.584,0,0,1,0,1.45,1.815,1.815,0,0,1-.83.995,3.9,3.9,0,0,1-1.946.373,7.769,7.769,0,0,1-3.274-.787,9.908,9.908,0,0,1-3.064-2.238,11.882,11.882,0,0,1-2.238-3.438,11.049,11.049,0,0,1-.87-4.476,18.829,18.829,0,0,1,.662-4.765,44.553,44.553,0,0,1,1.74-5.22q1.077-2.691,2.4-5.47t2.734-5.428c.442-.882.772-1.532,1-1.946s.372-.69.454-.83.1-.178.042-.124q-2.82,3.15-5.924,6.878t-5.969,7.416q-2.858,3.691-5.137,7a37.643,37.643,0,0,0-3.356,5.718c-.054.276-.1.538-.124.786s-.042.428-.042.538a4.719,4.719,0,0,0,.085.87,4.487,4.487,0,0,0,.247.869q.25,1,.414,1.824a3.216,3.216,0,0,1,0,1.45,1.631,1.631,0,0,1-.786.995,4.125,4.125,0,0,1-2.03.373,7.494,7.494,0,0,1-3.232-.787,10.1,10.1,0,0,1-3.026-2.238,12.6,12.6,0,0,1-2.276-3.438,10.611,10.611,0,0,1-.912-4.476,18.827,18.827,0,0,1,.661-4.765,44.563,44.563,0,0,1,1.741-5.22q1.076-2.691,2.443-5.428t2.777-5.47q2.322-4.556,4.144-8.494a16.271,16.271,0,0,0,1.824-6.422q0-1.323,1.822-1.408a9.08,9.08,0,0,1,4.06.912,13.059,13.059,0,0,1,4.06,2.857,6.033,6.033,0,0,1,1.824,4.351,9.372,9.372,0,0,1-.58,2.944q-.583,1.7-1.492,3.77,2.319-2.817,4.724-5.554t4.515-4.971q2.113-2.237,3.812-3.73a11.308,11.308,0,0,1,2.692-1.906,7.432,7.432,0,0,1,2.694.664,10.777,10.777,0,0,1,3.027,1.9,12.477,12.477,0,0,1,2.442,2.984,7.474,7.474,0,0,1,1.036,3.894,9.409,9.409,0,0,1-.538,2.818q-.54,1.659-1.45,3.73,2.487-2.985,5.014-5.883t4.68-5.138a46.386,46.386,0,0,1,3.814-3.6,4.918,4.918,0,0,1,2.4-1.368h.414a1.925,1.925,0,0,1,.664.167,6.706,6.706,0,0,1,2.236,1.16,14.1,14.1,0,0,1,2.32,2.154,13.592,13.592,0,0,1,1.824,2.694,6.234,6.234,0,0,1,.745,2.858,12.424,12.424,0,0,1-1.409,4.186q-1.407,3.024-3.314,7-1.411,2.9-2.942,6.09t-2.775,6.132q-1.245,2.943-2.072,5.47a13.741,13.741,0,0,0-.83,4.018c0,.444.082.664.248.664q1.161,0,3.108-1.908a45.348,45.348,0,0,0,4.226-4.888q2.276-2.982,4.641-6.588t4.434-7q2.067-3.4,3.644-6.133t2.237-4.06a1.258,1.258,0,0,1,1.243-.663,5.082,5.082,0,0,1,1.866.374,4.532,4.532,0,0,1,1.574.995,1.039,1.039,0,0,1,.29,1.283q-.747,1.659-2.526,4.93t-4.227,7.21q-2.446,3.937-5.344,8.08a87.749,87.749,0,0,1-5.884,7.542,37.548,37.548,0,0,1-5.926,5.55,9.344,9.344,0,0,1-5.344,2.156A8.664,8.664,0,0,1,534.32,630.123ZM387.513,346.529c17.025,34.818,65.686,49.5,65.686,49.5C389.5,384.127,387.513,346.529,387.513,346.529ZM492.3,362.646a32.209,32.209,0,0,1-10.267-7.188,16.933,16.933,0,0,0-1.549-1.377l-.008-.006c-.178-.145-.364-.3-.547-.451,4.781,2.041,11.047,4.477,13.751,4.477a2,2,0,0,0,.957-.183,2.313,2.313,0,0,0,1-2.705c-.365-1.387-1.881-3.007-4.956-3.007a10.225,10.225,0,0,0-1.714.153,17.364,17.364,0,0,1-2.907.234,31.809,31.809,0,0,1-11.021-2.348l.016.018a13.422,13.422,0,0,0-2.556-.992,2.966,2.966,0,0,1,1.806-.661c.076,0,.154,0,.231.01l-.006-.005.038,0a.412.412,0,0,1,.047,0l.04,0,.04,0a26.239,26.239,0,0,0,3.273.205c5.819,0,11.813-1.9,17.815-5.633a45.735,45.735,0,0,0,7.4-5.678,5.387,5.387,0,0,1,2.64-1.273,7.4,7.4,0,0,1,2.622.882,5.11,5.11,0,0,1,1.784,1.658,5.218,5.218,0,0,1,.772,2.966,10.742,10.742,0,0,1-.218,1.584c-.038.185-.1.386-.158.581-.026.087-.052.172-.076.255a8.59,8.59,0,0,1-4.166,5.2,18.34,18.34,0,0,1-2.237,1.124,3.88,3.88,0,0,1,1.032-.132c1.233,0,2.966.508,4.222,2.922.034.066.059.113.084.158s.061.114.1.2a8.3,8.3,0,0,1-.464,5.66c-.032.074-.058.148-.083.22a2.341,2.341,0,0,1-.123.306c-1.779,2.966-4.651,4.47-8.537,4.47A23.874,23.874,0,0,1,492.3,362.646Zm10.23-22.468c-3.709,3.381-4.387,3.738-4.506,3.766.04-.005,4.017-.346,6.494-2.6a17.911,17.911,0,0,1,4.086-2.974,1.972,1.972,0,0,0-1.531-.6C505.808,337.775,504.28,338.584,502.53,340.178Zm-6.917-20.02c10.3-10.342,9.232.126,9.232.126-1.634-2.191-5.628-.461-8.7,1.27-2.039,1.15-3.67,2.3-3.929,2.3C491.984,323.853,492.876,322.907,495.614,320.158Zm-32.225-30.434c-1.228-.144-2.6-.352-4.083-.643a40.952,40.952,0,0,1-11.8-4.18c-.2-.112-.42-.164-.623-.28,0,0,.625.6,1.5,1.34a20.11,20.11,0,0,0,5.47,3.415c-1.15-.252-2.356-.706-3.546-1.094-14.688-4.8-31.49-18.928-31.49-18.928s4.722-2.394,11.66-5.014a113.791,113.791,0,0,1,19.165-5.516s-12.97,6.25-14.6,11.03c-.56,1.642.254,3.1,3.38,4.081a16.888,16.888,0,0,0,1.959.524,82.829,82.829,0,0,0,10.1.748l.493,0c13.184.028,19.384-3.628,19.384-3.628l.134-.012a15.343,15.343,0,0,0,5.408,6.412,10.8,10.8,0,0,0,1.184.8c.344.194.7.374,1.084.54l.014,0c.164.072.346.13.516.2.3.1.738.234,1.282.364.286.088.551.194.849.27,7.366,1.872,15.906-1.759,21.054-4.579.27-.142.53-.265.8-.417,0,0-12.216,9.082-26.056,9.121,0,0,6.44,2.633,18.286-2.634,0,0-14.354,9.046-28.818,3.468a26.465,26.465,0,0,1-3.406-1.586,29.07,29.07,0,0,0,3.322,1.892c3.05,1.508,7.83,3.312,12.788,2.955a37.807,37.807,0,0,1-13.774-.59,30.293,30.293,0,0,1-8.8-3.484,23.815,23.815,0,0,0,8.049,4.566,29.464,29.464,0,0,0,4.492,1.21h-.116A47.3,47.3,0,0,1,463.388,289.724Zm-46.177-33.107c11.332-8.01,29.536-18.386,44.124-15.034q.309.089.688.17h0a22.051,22.051,0,0,1,4.371,1.653,8.874,8.874,0,0,1,4.084,5.225,19.043,19.043,0,0,1-1.06,10.194,11.638,11.638,0,0,0-8.254-11.315c-6.716-2.191-18.878-1.02-40.9,10.024-4.226,2.12-8.815,4.6-13.794,7.492A128.446,128.446,0,0,1,417.211,256.617Z" fill="#fb7597"/>
    <path id="Path_8" data-name="Path 8" d="M572.482,633.148a13.966,13.966,0,0,1-7.128-1.74,16.682,16.682,0,0,1-4.973-4.39,18.714,18.714,0,0,1-2.941-5.8,20.988,20.988,0,0,1-.952-6.048,25.715,25.715,0,0,1,2.818-11.479,37.22,37.22,0,0,1,7.416-10.15,39.318,39.318,0,0,1,10.358-7.25,26.871,26.871,0,0,1,11.726-2.776c2.582,0,4.464.585,5.594,1.74a6.392,6.392,0,0,1,1.7,4.64,13.5,13.5,0,0,1-1.118,4.932,35.208,35.208,0,0,1-3.027,5.758,52.937,52.937,0,0,1-4.389,5.884,50.524,50.524,0,0,1-5.264,5.3,38.158,38.158,0,0,1-5.676,4.1,19.26,19.26,0,0,1-5.55,2.281,15.163,15.163,0,0,0-.331,3.148,6.438,6.438,0,0,0,.661,3.108,8.9,8.9,0,0,0,8.138,4.374c3.08,0,6.671-1.123,10.672-3.338-1.063.762-1.913,1.386-2.663,1.937a30.931,30.931,0,0,1-5.707,3.615A21.386,21.386,0,0,1,572.482,633.148Zm17.4-43.752a7.122,7.122,0,0,0-4.35,1.948,28.046,28.046,0,0,0-4.64,5.054,54,54,0,0,0-4.307,7,67.4,67.4,0,0,0-3.441,7.706,26.848,26.848,0,0,0,6.048-4.31,51.18,51.18,0,0,0,5.555-5.963,38.257,38.257,0,0,0,4.018-6.134,11.4,11.4,0,0,0,1.534-4.806C590.3,589.563,590.157,589.4,589.882,589.4Z" fill="#fb7597"/>
  </g>
</svg>
